<svg xmlns="http://www.w3.org/2000/svg" width="66.605" height="68.53" viewBox="0 0 66.605 68.53">
  <path id="Path_18" data-name="Path 18" d="M1045.354,1017.489a33.307,33.307,0,1,0-40.163,17.419l.956.281a20.748,20.748,0,0,1,6.135,3.183c.017-.343.027-.688.027-1.035,0-.307-.026-1.01-.026-1.01a20.8,20.8,0,0,0-9.146-16.245l.005-.007a20.814,20.814,0,1,1,24.394-.082l.01.014a20.8,20.8,0,0,0-9.258,16.321s-.026.694-.026,1.01q0,.531.027,1.057a20.722,20.722,0,0,1,6.347-3.267l.555-.158A33.4,33.4,0,0,0,1045.354,1017.489Z" transform="translate(-981.981 -969.865)" fill="#e50040"/>
</svg>
