<svg xmlns="http://www.w3.org/2000/svg" width="399.769" height="58.525" viewBox="0 0 399.769 58.525">
  <g id="Group_3" data-name="Group 3" transform="translate(-989.47 -755.353)">
    <path id="Path_1" data-name="Path 1" d="M1153.875,788.394a22.17,22.17,0,1,0-26.733,11.595l.636.187a13.8,13.8,0,0,1,4.085,2.119c.01-.228.016-.458.016-.689,0-.2-.016-.672-.016-.672a13.844,13.844,0,0,0-6.088-10.813l0,0a13.854,13.854,0,1,1,16.237-.055l.007.009a13.843,13.843,0,0,0-6.163,10.863s-.017.462-.017.672c0,.236.007.471.019.7a13.8,13.8,0,0,1,4.224-2.174l.369-.1A22.228,22.228,0,0,0,1153.875,788.394Z" transform="translate(20.133 0.221)" fill="#e50040"/>
    <path id="Path_2" data-name="Path 2" d="M1019.307,779.213h9.482v14.979q-6.281,7.008-17.394,7.006a21.473,21.473,0,0,1-15.613-6.16,22.314,22.314,0,0,1,.121-31.226,21.409,21.409,0,0,1,15.522-6.281,22.956,22.956,0,0,1,15.794,5.981l-4.892,7.066a18.619,18.619,0,0,0-5.225-3.413,14.008,14.008,0,0,0-5.164-.936,12.364,12.364,0,0,0-9.059,3.654,14.584,14.584,0,0,0-.15,19.207,11.408,11.408,0,0,0,8.426,3.592,16.174,16.174,0,0,0,8.153-1.872Z" transform="translate(0 0.359)" fill="#e50040"/>
    <path id="Path_3" data-name="Path 3" d="M1062.417,783.034a16.068,16.068,0,0,1-4.892,11.9,18.051,18.051,0,0,1-24.583,0,16.953,16.953,0,0,1,0-23.827,17.966,17.966,0,0,1,24.583,0A16.169,16.169,0,0,1,1062.417,783.034Zm-25.247,0a9.309,9.309,0,0,0,2.266,6.491,7.96,7.96,0,0,0,11.6,0,9.308,9.308,0,0,0,2.264-6.491,9.431,9.431,0,0,0-2.264-6.525,7.9,7.9,0,0,0-11.6,0A9.432,9.432,0,0,0,1037.171,783.034Z" transform="translate(6.355 1.794)" fill="#e50040"/>
    <path id="Path_4" data-name="Path 4" d="M1072.372,800.945h-9.06V756.131h9.06Z" transform="translate(12.163 0.128)" fill="#e50040"/>
    <path id="Path_5" data-name="Path 5" d="M1089.564,766.707v2.175h7.853V775.4h-7.853v25.668h-9.12V775.4h-3.805v-6.524h3.805v-1.993a10.872,10.872,0,0,1,11.264-11.535,12.572,12.572,0,0,1,8.727,3.623l-3.261,6.1a5.792,5.792,0,0,0-4.409-2.295,2.966,2.966,0,0,0-2.3,1A4.223,4.223,0,0,0,1089.564,766.707Z" transform="translate(14.359)" fill="#e50040"/>
    <path id="Path_6" data-name="Path 6" d="M1169.094,801.428q-5.769,0-10.3-4.892a17.192,17.192,0,0,1-4.53-12.14,16.493,16.493,0,0,1,4.408-11.869,13.838,13.838,0,0,1,10.329-4.62,12.4,12.4,0,0,1,9.664,4.167V756.131h9.059v44.814h-9.059v-4.287A11.758,11.758,0,0,1,1169.094,801.428Zm-5.708-16.671a9.009,9.009,0,0,0,2.356,6.433,7.315,7.315,0,0,0,5.5,2.506,6.863,6.863,0,0,0,5.346-2.506,9.424,9.424,0,0,0,2.2-6.462,9.9,9.9,0,0,0-2.2-6.583,6.8,6.8,0,0,0-5.406-2.628,7.035,7.035,0,0,0-5.5,2.657A9.724,9.724,0,0,0,1163.386,784.758Z" transform="translate(27.145 0.128)" fill="#e50040"/>
    <path id="Path_7" data-name="Path 7" d="M1196.547,812.007a13.178,13.178,0,0,1-9-3.866l4.107-6.7a6.785,6.785,0,0,0,4.711,2.235,2.644,2.644,0,0,0,2.174-1.239,4.369,4.369,0,0,0,.906-2.626q0-1.387-12.563-33.1h9.664l7.912,20.234,7.912-20.234h9.664L1206.935,805a10.793,10.793,0,0,1-4.137,5.164A11.166,11.166,0,0,1,1196.547,812.007Z" transform="translate(32.518 1.871)" fill="#e50040"/>
    <path id="Path_8" data-name="Path 8" d="M1245.272,789.163a9.462,9.462,0,0,1-3.534,7.7,13.677,13.677,0,0,1-8.969,2.9,23.986,23.986,0,0,1-7.55-1.3,22.228,22.228,0,0,1-7.066-3.835l3.987-5.677a17.35,17.35,0,0,0,10.811,3.925,4.9,4.9,0,0,0,2.779-.694,2.128,2.128,0,0,0,1.026-1.841,2.662,2.662,0,0,0-1.42-2.114,16.024,16.024,0,0,0-4.107-1.812q-2.689-.846-4.108-1.45a23.009,23.009,0,0,1-3.231-1.751,7.5,7.5,0,0,1-3.684-6.8,8.9,8.9,0,0,1,3.623-7.338,14.737,14.737,0,0,1,9.362-2.84,20.424,20.424,0,0,1,11.476,3.867l-3.382,6.039a14.832,14.832,0,0,0-8.425-2.9q-4.2,0-4.2,2.293a2.207,2.207,0,0,0,1.329,1.994,26.834,26.834,0,0,0,4.408,1.691q3.08.968,4.379,1.479a22.174,22.174,0,0,1,3.111,1.6Q1245.27,784.363,1245.272,789.163Z" transform="translate(37.669 1.794)" fill="#e50040"/>
    <path id="Path_9" data-name="Path 9" d="M1272.236,789.163a9.46,9.46,0,0,1-3.535,7.7,13.673,13.673,0,0,1-8.968,2.9,23.988,23.988,0,0,1-7.55-1.3,22.229,22.229,0,0,1-7.066-3.835l3.987-5.677a17.35,17.35,0,0,0,10.811,3.925,4.889,4.889,0,0,0,2.778-.694,2.126,2.126,0,0,0,1.027-1.841,2.661,2.661,0,0,0-1.42-2.114,16.059,16.059,0,0,0-4.107-1.812q-2.689-.846-4.108-1.45a23,23,0,0,1-3.231-1.751,7.5,7.5,0,0,1-3.684-6.8,8.9,8.9,0,0,1,3.623-7.338,14.732,14.732,0,0,1,9.362-2.84,20.424,20.424,0,0,1,11.476,3.867l-3.383,6.039a14.827,14.827,0,0,0-8.424-2.9q-4.2,0-4.2,2.293a2.208,2.208,0,0,0,1.328,1.994,26.889,26.889,0,0,0,4.41,1.691q3.08.968,4.379,1.479a22.1,22.1,0,0,1,3.11,1.6Q1272.235,784.363,1272.236,789.163Z" transform="translate(42.111 1.794)" fill="#e50040"/>
    <path id="Path_10" data-name="Path 10" d="M1302.765,794.569a18.163,18.163,0,0,1-12.895,5.193,17.111,17.111,0,0,1-12.231-4.559q-4.833-4.562-4.831-12.231t4.922-12.2a16.6,16.6,0,0,1,11.626-4.53,16.819,16.819,0,0,1,11.385,4.046q4.68,4.048,4.681,11.114v4.831h-23.675a6.456,6.456,0,0,0,2.778,4.35,8.889,8.889,0,0,0,5.315,1.69,10.426,10.426,0,0,0,7.853-3.2Zm-8.7-19.267a6.86,6.86,0,0,0-4.56-1.57,8.154,8.154,0,0,0-4.922,1.631,6.232,6.232,0,0,0-2.6,4.408h14.254A6.432,6.432,0,0,0,1294.068,775.3Z" transform="translate(46.672 1.794)" fill="#e50040"/>
    <path id="Path_11" data-name="Path 11" d="M1312.186,812.007a13.176,13.176,0,0,1-9-3.866l4.107-6.7a6.785,6.785,0,0,0,4.711,2.235,2.644,2.644,0,0,0,2.175-1.239,4.37,4.37,0,0,0,.906-2.626q0-1.387-12.563-33.1h9.664l7.912,20.234,7.912-20.234h9.663L1322.574,805a10.794,10.794,0,0,1-4.137,5.164A11.166,11.166,0,0,1,1312.186,812.007Z" transform="translate(51.567 1.871)" fill="#e50040"/>
  </g>
</svg>
